<svg width="7" height="160" viewBox="0 0 7 160" fill="none" xmlns="http://www.w3.org/2000/svg">
<path d="M3.50001 160L6.38676 155L0.613255 155L3.50001 160ZM3 2.18557e-08L3 1L4 1L4 -2.18557e-08L3 2.18557e-08ZM3 3L3 5L4 5L4 3L3 3ZM3 7L3 9L4 9L4 7L3 7ZM3 11L3 13L4 13L4 11L3 11ZM3 15L3 17L4 17L4 15L3 15ZM3 19L3 21L4 21L4 19L3 19ZM3 23L3 25L4 25L4 23L3 23ZM3 27L3 29L4 29L4 27L3 27ZM3 31L3 33L4 33L4 31L3 31ZM3 35L3 37L4 37L4 35L3 35ZM3 39L3 41L4 41L4 39L3 39ZM3 43L3 45L4 45L4 43L3 43ZM3 47L3 49L4 49L4 47L3 47ZM3 51L3 53L4 53L4 51L3 51ZM3 55L3 57L4 57L4 55L3 55ZM3 59L3 61L4 61L4 59L3 59ZM3 63L3 65L4 65L4 63L3 63ZM3 67L3 69L4 69L4 67L3 67ZM3 71L3 73L4 73L4 71L3 71ZM3 75L3 77L4 77L4 75L3 75ZM3 79L3 81L4 81L4 79L3 79ZM3 83L3 85L4 85L4 83L3 83ZM3 87L3 89L4 89L4 87L3 87ZM3 91L3 93L4 93L4 91L3 91ZM3 95L3 97L4 97L4 95L3 95ZM3 99L3 101L4 101L4 99L3 99ZM3 103L3 105L4 105L4 103L3 103ZM3 107L3 109L4 109L4 107L3 107ZM3 111L3 113L4 113L4 111L3 111ZM3.00001 115L3.00001 117L4.00001 117L4.00001 115L3.00001 115ZM3.00001 119L3.00001 121L4.00001 121L4.00001 119L3.00001 119ZM3.00001 123L3.00001 125L4.00001 125L4.00001 123L3.00001 123ZM3.00001 127L3.00001 129L4.00001 129L4.00001 127L3.00001 127ZM3.00001 131L3.00001 133L4.00001 133L4.00001 131L3.00001 131ZM3.00001 135L3.00001 137L4.00001 137L4.00001 135L3.00001 135ZM3.00001 139L3.00001 141L4.00001 141L4.00001 139L3.00001 139ZM3.00001 143L3.00001 145L4.00001 145L4.00001 143L3.00001 143ZM3.00001 147L3.00001 149L4.00001 149L4.00001 147L3.00001 147ZM3.00001 151L3.00001 153L4.00001 153L4.00001 151L3.00001 151ZM3.00001 155L3.00001 157L4.00001 157L4.00001 155L3.00001 155Z" fill="white"/>
</svg>
