<svg width="196" height="70" viewBox="0 0 196 70" fill="none" xmlns="http://www.w3.org/2000/svg">
<path d="M16.5344 70.0001C13.756 70.0001 11.3843 69.5258 9.28365 68.6448C7.18297 67.7639 5.48887 66.5442 4.13359 64.9856C2.77832 63.427 1.76186 61.7329 1.01646 59.8356C0.338819 57.9382 0 55.973 0 54.0079C0 52.0427 0.338819 50.0776 1.01646 48.1802C1.69409 46.2828 2.71056 44.5209 4.13359 43.0301C5.48887 41.4716 7.25073 40.3196 9.28365 39.3709C11.3843 38.49 13.756 38.0156 16.5344 38.0156C18.7706 38.0156 20.6679 38.2867 22.2943 38.761C23.9206 39.2354 25.2759 39.913 26.3601 40.7262C27.4443 41.5393 28.3253 42.4203 29.0029 43.3012C29.6805 44.1821 30.1549 45.063 30.4937 45.8762C30.8325 46.6894 31.1036 47.5703 31.3069 48.5868H27.5799C27.3088 47.5703 26.97 46.6894 26.5634 45.944C26.1568 45.1986 25.5469 44.4532 24.7338 43.64C23.9206 42.8946 22.8364 42.217 21.5489 41.7426C20.1936 41.2683 18.5673 40.9972 16.5344 40.9972C14.4337 40.9972 12.6041 41.3361 10.9777 42.0815C9.35141 42.8269 8.06388 43.7755 6.97966 45.0631C5.89544 46.2828 5.08229 47.7058 4.54018 49.2644C3.99807 50.823 3.72701 52.3815 3.72701 54.0079C3.72701 55.6342 3.99807 57.1928 4.54018 58.7513C5.08229 60.3099 5.89544 61.6652 6.97966 62.9527C8.06388 64.1724 9.35141 65.1889 10.9777 65.9343C12.6041 66.6797 14.4337 67.0185 16.5344 67.0185C18.5673 67.0185 20.1936 66.7475 21.5489 66.2731C22.9042 65.7988 23.9206 65.1211 24.7338 64.3757C25.5469 63.6303 26.1568 62.8849 26.5634 62.0718C26.97 61.3264 27.3088 60.4454 27.5799 59.3612H31.3069C31.1036 60.3777 30.8325 61.3263 30.4937 62.1395C30.1549 62.9527 29.6805 63.7659 29.0029 64.7146C28.3253 65.5955 27.4443 66.4764 26.3601 67.2896C25.2759 68.1027 23.9206 68.7804 22.2943 69.2547C20.6679 69.7968 18.7706 70.0001 16.5344 70.0001Z" fill="white"/>
<path d="M34.424 69.5932L47.0281 38.4219H51.5683L64.2401 69.5932H60.3098L57.1249 61.5293H41.607L38.4221 69.5932H34.424ZM42.6912 58.6155H55.9052L49.2643 42.2167L42.6912 58.6155Z" fill="white"/>
<path d="M70.3388 69.5932V38.4219H82.6719C85.3146 38.4219 87.4831 38.8962 89.2449 39.8449C91.0068 40.7936 92.2943 42.0811 93.1752 43.5719C94.0562 45.0627 94.4628 46.6891 94.4628 48.3154C94.4628 50.0095 94.0562 51.5681 93.1752 53.1266C92.2943 54.6174 91.0068 55.9049 89.2449 56.8536C87.4831 57.8023 85.3146 58.2767 82.6719 58.2767H73.9981V69.5932H70.3388ZM82.7396 41.3357H74.0658V55.4306H82.7396C84.5692 55.4306 86.06 55.0918 87.2798 54.4141C88.4995 53.7365 89.3805 52.8556 89.9903 51.7713C90.6002 50.6871 90.8713 49.5351 90.8713 48.3832C90.8713 47.2312 90.6002 46.0792 89.9903 44.995C89.3805 43.9107 88.4995 43.0298 87.2798 42.3522C86.06 41.6745 84.5015 41.3357 82.7396 41.3357Z" fill="white"/>
<path d="M104.221 38.4219H100.561V69.5932H104.221V38.4219Z" fill="white"/>
<path d="M121.839 69.5932V41.3357H110.319V38.4219H137.018V41.3357H125.499V69.5932H121.839Z" fill="white"/>
<path d="M137.425 69.5932L150.029 38.4219H154.569L167.241 69.5932H163.311L160.126 61.5293H144.608L141.423 69.5932H137.425ZM145.692 58.6155H158.906L152.265 42.2167L145.692 58.6155Z" fill="white"/>
<path d="M173.34 69.5932V38.4219H176.999V66.6794H195.566V69.5932H173.34Z" fill="white"/>
<path d="M111.2 6.84415H137.154V0H110.997V6.84415H111.2Z" fill="white"/>
<path d="M110.997 30.0197H137.154V23.04H111.336H110.997V30.0197Z" fill="white"/>
<path d="M20.6002 17.686C20.6002 18.9057 20.3969 19.8544 19.9903 20.6676C19.5837 21.413 19.1093 22.0228 18.4995 22.4972C17.8896 22.9715 17.2797 23.2426 16.6021 23.4459C15.8567 23.6492 15.1791 23.7169 14.6369 23.7169C14.0948 23.7169 13.4172 23.6492 12.6718 23.4459C11.9942 23.3104 11.3165 22.9715 10.7744 22.4972C10.1645 22.0906 9.6902 21.4807 9.28361 20.6676C8.87703 19.9222 8.67372 18.9057 8.67372 17.686V0.0673828H0.813141V17.7537C0.813141 19.6511 1.15196 21.413 1.8296 23.0393C2.50724 24.5979 3.45592 26.0209 4.67566 27.1051C5.89541 28.1893 7.38622 29.0703 9.08031 29.6801C10.7744 30.29 12.604 30.5611 14.6369 30.5611C16.6699 30.5611 18.5672 30.29 20.2613 29.6801C21.9554 29.0703 23.4463 28.1893 24.666 27.1051C25.8857 26.0209 26.8344 24.5979 27.512 23.0393C28.1897 21.4807 28.4608 19.7189 28.4608 17.8215V0.13513H20.6002V17.686Z" fill="white"/>
<path d="M53.1268 15.8568L36.999 0.338867H33.5431V30.2904H41.1326V13.9594L57.5315 30.2904H60.7841V0.338867H53.1268V15.8568Z" fill="white"/>
<path d="M74.2691 0H66.4085V29.9516H74.2691V0Z" fill="white"/>
<path d="M161.345 21.6848C162.836 20.9394 164.395 19.3131 165.344 17.9578C166.563 16.196 167.105 13.1466 167.105 10.8426C167.105 9.35184 166.834 7.86102 166.292 6.57351C165.75 5.286 164.937 4.13401 163.921 3.18532C162.904 2.23663 161.684 1.49124 160.329 1.01689C158.974 0.542544 157.415 0.271484 155.789 0.271484H141.22V30.0198H149.08V22.8368H153.485C154.501 24.1921 154.298 23.921 155.315 25.2763C156.399 26.7671 157.618 28.1902 158.838 29.6132L159.177 30.0198H167.783L166.428 28.2579C164.327 25.5474 163.582 24.3954 161.345 21.6848ZM159.109 11.9946C159.109 12.8755 158.974 13.621 158.77 14.2308C158.567 14.8407 158.296 15.3828 157.957 15.7894C157.618 16.196 157.28 16.467 156.873 16.6703C156.467 16.8736 155.992 17.0091 155.653 17.0091H148.877V6.70904H155.653C156.467 6.70904 157.076 6.91233 157.483 7.25115C157.957 7.65773 158.296 8.06431 158.499 8.60642C158.77 9.14853 158.906 9.75841 158.974 10.3005C159.042 10.9782 159.109 11.5203 159.109 11.9946Z" fill="white"/>
<path d="M92.972 17.0087L85.6535 0H76.9797L90.8713 30.0193H95.0727L108.964 0H100.223L92.972 17.0087Z" fill="white"/>
<path d="M113.708 11.6553V18.635H113.911H134.172V11.6553H113.843H113.708Z" fill="white"/>
<path d="M190.281 8.40258L193.398 2.30383C193.398 2.30383 173.34 -5.28572 170.494 7.25058C168.529 18.7704 182.895 17.0086 185.944 20.058C188.993 23.1073 183.979 26.5633 172.798 21.9553L169.952 27.4442C169.952 27.4442 181.878 34.2206 190.958 27.9863C191.975 27.3087 192.856 26.36 193.466 25.2758C196.447 19.7191 193.262 13.0105 183.843 11.8585C175.712 10.5033 176.999 6.64071 181.404 6.23413C185.741 6.03083 190.281 8.40258 190.281 8.40258Z" fill="white"/>
</svg>
