<svg width="60" height="60" viewBox="0 0 60 60" fill="none" xmlns="http://www.w3.org/2000/svg">
<rect width="60" height="60" fill="url(#paint0_linear_301_5353)"/>
<path fill-rule="evenodd" clip-rule="evenodd" d="M21.3365 32.5038C21.74 32.4462 22.4316 31.9275 22.7197 31.7546L39.0298 21.3231C39.4909 21.0349 39.8367 20.7467 40.2978 20.5162C40.7588 20.228 41.1046 19.8246 41.7386 19.9975C41.9115 20.5162 41.7386 20.7467 41.1046 21.2078L36.0329 25.7608C35.8024 25.9913 35.7448 26.049 35.5142 26.2219L34.0158 27.5474C33.7852 27.7203 33.7276 27.8356 33.4971 28.0085C32.3444 29.0459 30.846 30.2562 29.5204 31.4665C25.6014 34.9244 25.1403 37.8637 25.025 43.3965C26.0624 44.2033 29.117 40.5725 29.7509 39.9961C30.0967 39.708 30.9036 38.7858 31.1918 38.7282C31.5376 38.9011 31.941 39.2469 32.2868 39.5351L37.5314 43.5117C38.0501 43.9152 39.1451 44.8373 39.6638 45.0678C40.5859 45.4136 41.6233 45.0678 42.1996 44.0304C42.6031 43.2236 46.4645 23.9165 46.695 22.7063C47.0984 20.6891 47.5019 18.5567 47.8477 16.4819C48.0206 15.3869 48.3087 14.119 46.9832 14.0037C46.2916 13.9461 44.7355 14.58 44.1015 14.8106C40.4707 16.0785 36.8974 17.4617 33.3242 18.7872C30.2696 19.9399 25.659 21.6689 22.7197 22.9368L14.9393 26.2219C14.1901 26.51 12.9221 26.9711 12.4611 27.4322C11.4813 28.2967 12.2305 29.2188 13.1527 29.6222C14.1901 30.2562 19.6076 31.8123 21.3365 32.5038Z" fill="white"/>
<defs>
<linearGradient id="paint0_linear_301_5353" x1="30" y1="0" x2="30" y2="60" gradientUnits="userSpaceOnUse">
<stop stop-color="#7000FF"/>
<stop offset="1" stop-color="#FF0055"/>
</linearGradient>
</defs>
</svg>
